<svg xmlns="http://www.w3.org/2000/svg" width="64.26" height="64.26" viewBox="0 0 64.26 64.26"><g id="Layer_2" data-name="Layer 2"><g id="Layer_1-2" data-name="Layer 1"><g id="nitsan_maintenance"><rect width="64.26" height="64.26" style="fill:#ff723b"/><path d="M52.31,36.73v-9.2H48.26a16.83,16.83,0,0,0-1.39-3.34l2.87-2.87L43.2,14.78l-2.87,2.87A16.11,16.11,0,0,0,37,16.26V12.21h-9.7v4.05a16.11,16.11,0,0,0-3.35,1.39l-2.87-2.87-6.54,6.54,2.87,2.87A16.83,16.83,0,0,0,16,27.53H12v9.2H16a16.83,16.83,0,0,0,1.39,3.34l-2.87,2.87,6.54,6.54,2.87-2.87A16.11,16.11,0,0,0,27.28,48v4H37V48a16.57,16.57,0,0,0,3.35-1.39l2.87,2.87,6.54-6.54-2.87-2.87a16.83,16.83,0,0,0,1.39-3.34ZM30.82,44.09l.31,0Zm1.15.06.42,0v0H32Zm.56,0,.22,0a12.87,12.87,0,0,0,2.18-.34h0V38a19.59,19.59,0,0,0,2.88-3.13,6,6,0,0,0,1.34-3.25,3.64,3.64,0,0,0,0-.57c-.17-2.13-4-5.82-4.18-5.9v5.18L33.2,31.36l-1.11.54-2.77-1.65V25.07S25,28.66,25,31.6,28.81,38,28.81,38v5.71a11.94,11.94,0,1,1,3.72.44Z" style="fill:#fff"/></g></g></g></svg>